<svg xmlns="http://www.w3.org/2000/svg" width="130" height="26" viewBox="0 0 130 26" fill="none">
                            <path d="M103.854 21.7483C104.477 21.7483 104.981 21.212 104.981 20.5504C104.981 19.8888 104.477 19.3525 103.854 19.3525C103.231 19.3525 102.727 19.8888 102.727 20.5504C102.727 21.212 103.231 21.7483 103.854 21.7483Z" fill="white"/>
                            <path d="M129.944 10.4274C129.77 9.95499 129.246 9.71879 128.801 9.90437L127.134 10.5792V9.5332H106.188V10.5961L104.489 9.8875C104.044 9.70191 103.552 9.93812 103.377 10.4105C103.203 10.8829 103.409 11.4059 103.854 11.5915L106.172 12.5532V18.5426C106.172 18.5426 106.299 25.2574 116.955 25.2574C126.546 25.2574 127.134 18.5426 127.134 18.5426V12.5195L129.42 11.5747C129.865 11.4228 130.119 10.8998 129.944 10.4274Z" fill="#FF7900"/>
                            <path d="M127.229 8.82461H106.188C106.188 8.82461 107.649 7.20495 109.936 5.9902C112.525 4.60674 115.192 4.35366 115.192 4.35366C115.192 4.35366 114.684 2.734 114.589 2.10976C114.478 1.41803 115.494 0.743164 116.59 0.743164C118.495 0.743164 118.861 1.78919 118.813 2.05914C118.686 2.83523 118.225 4.37054 118.225 4.37054C118.225 4.37054 120.909 4.53925 123.72 6.12517C125.943 7.37366 127.229 8.82461 127.229 8.82461Z" fill="#FF7900"/>
                            <path d="M126.038 16.6027C126.038 16.6027 125.8 11.8955 121.592 11.8955C118.13 11.8955 116.892 15.1854 116.892 16.7208C116.892 19.5383 119.131 21.7485 121.83 21.7485C122.958 21.7485 124.514 21.0399 125.197 20.1794C125.324 20.0107 125.403 19.9938 125.101 19.6564C124.8 19.2852 124.387 18.8803 124.244 18.7116C124.101 18.5429 124.022 18.3742 123.577 18.7116C123.212 18.9815 122.608 19.3696 121.671 19.3696C120.766 19.3696 119.591 18.5935 119.591 17.6656C119.591 17.6656 123.974 17.733 124.784 17.733C125.578 17.7499 126.038 17.7499 126.038 16.6027ZM119.702 15.5735C119.702 15.5735 120.385 14.1057 121.513 14.1057C122.64 14.1057 123.323 15.5735 123.323 15.5735H119.702Z" fill="white"/>
                            <path d="M113.588 10.4609C112.683 10.4609 108.57 10.4609 108.57 10.4609C108.221 10.4609 108.253 10.6803 108.253 11.1358C108.253 11.5913 108.253 20.4826 108.253 21.1068C108.253 21.7311 108.459 21.5961 108.745 21.5961C109.031 21.5961 110.412 21.5961 110.73 21.5961C111.048 21.5961 111 21.6973 111 21.2081C111 20.7188 111 17.7663 111 17.7663C111 17.7663 113.223 17.7663 113.668 17.7663C114.112 17.7663 116.558 16.619 116.558 14.4932C116.558 11.5238 114.779 10.4609 113.588 10.4609ZM112.763 15.3874C112.254 15.3874 111 15.3874 111 15.3874V12.8398C111 12.8398 112.239 12.8398 112.731 12.8398C113.239 12.8398 113.747 13.3797 113.747 14.122C113.747 14.78 113.287 15.3874 112.763 15.3874Z" fill="white"/>
                          </svg>